Filename:
Paranormal Activity 2 TS READNFO XViD - IMAGiNE
 
http://www.imdb.com/title/tt1536044/

DETAILS:

Video
ID                               : 0
Format                           : MPEG-4 Visual
Format profile                   : Advanced Simple@L5
Format settings, BVOP            : Yes
Format settings, QPel            : No
Format settings, GMC             : No warppoints
Format settings, Matrix          : Default (H.263)
Muxing mode                      : Packed bitstream
Codec ID                         : XVID
Codec ID/Hint                    : XviD
Duration                         : 1h 24mn
Bit rate                         : 2 183 Kbps
Width                            : 720 pixels
Height                           : 400 pixels
Display aspect ratio             : 16:9
Frame rate                       : 25.000 fps
Color space                      : YUV
Chroma subsampling               : 4:2:0
Bit depth                        : 8 bits
Scan type                        : Progressive
Bits/(Pixel*Frame)               : 0.303
Stream size                      : 1.29 GiB (94%)
Writing library                  : XviD 1.1.2 (UTC 2006-11-01)

Audio
ID                               : 1
Format                           : MPEG Audio
Format version                   : Version 1
Format profile                   : Layer 3
Codec ID                         : 55
Codec ID/Hint                    : MP3
Duration                         : 1h 24mn
Bit rate mode                    : Constant
Bit rate                         : 128 Kbps
Channel(s)                       : 2 channels
Sampling rate                    : 44.1 KHz
Stream size                      : 77.4 MiB (6%)
Alignment                        : Split accross interleaves
Interleave, duration             : 40 ms (1.00 video frame)
Interleave, preload duration     : 500 ms




SOURCES:

VIDEOaranormal Activity 2 .VOB files .............Thanks ELEKTRI4KA bro
AUDIO:Our Own LiNE

NOTES:

IMAGiNE bringing you another release..........Paranormal Activity 2

Well here we go with a our release of this one...
First we did a small script containing crop,resize,white balance,rgb eq,sharpness,chroma,brightness,contrast......
The source video was very dark so we had to lighten it up a bit to make it more visible. Its a
pretty good cam source for such a dark movie, but turned out good imo. Now the reason for the
READNFO is that our line audio is missing 3 1/2 minutes at the very beginning, so we just
used the cam audio from the LKRG release so thanks to them for that...
